<?xml version="1.0" encoding="utf-8"?>
<!-- Generator: Adobe Illustrator 16.0.0, SVG Export Plug-In . SVG Version: 6.00 Build 0)  -->
<!DOCTYPE svg PUBLIC "-//W3C//DTD SVG 1.1//EN" "http://www.w3.org/Graphics/SVG/1.1/DTD/svg11.dtd">
<svg version="1.1" id="Layer_1" xmlns="http://www.w3.org/2000/svg" xmlns:xlink="http://www.w3.org/1999/xlink" x="0px" y="0px"
	 width="322px" height="242px" viewBox="0 0 322 242" enable-background="new 0 0 322 242" xml:space="preserve">
<g>
	<path fill-rule="evenodd" clip-rule="evenodd" fill="#7414DC" d="M58.875,171.304c-2.625,3.805-5.16,7.479-7.672,11.118
		c-2.169-1.231-4.207-2.462-6.311-3.565c-3.301-1.729-6.817-2.795-10.548-3.06c-2.146-0.152-4.256,0.098-6.238,0.968
		c-2.035,0.893-3.449,2.326-3.661,4.675c-0.236,2.622,0.712,4.76,3.139,5.762c3.22,1.329,6.545,2.444,9.894,3.415
		c4.58,1.327,9.204,2.49,13.466,4.717c4.782,2.499,8.435,6.016,9.508,11.484c2.231,11.375-2.561,22.011-15.667,25.081
		c-12.871,3.015-24.665,0.068-35.319-7.641c-0.873-0.632-1.682-1.35-2.638-2.124c2.957-3.543,5.859-7.021,8.792-10.538
		c1.496,1.066,2.917,2.139,4.395,3.126c4.823,3.222,10.107,5.148,15.94,5.093c2.081-0.019,4.244-0.423,6.213-1.103
		c2.972-1.026,4.241-3.417,3.893-6.529c-0.226-2.011-1.469-3.39-3.203-4.153c-2.513-1.106-5.101-2.067-7.713-2.918
		c-4.595-1.497-9.283-2.725-13.837-4.332c-3.414-1.205-6.412-3.219-8.588-6.214c-2.902-3.996-3.437-8.579-3.05-13.328
		c0.797-9.762,8.056-16.527,18.137-18.102c10.949-1.709,21.024,0.739,30.023,7.316C58.155,170.69,58.457,170.961,58.875,171.304z"/>
	<path fill-rule="evenodd" clip-rule="evenodd" fill="#7414DC" d="M146.714,233.266c-11.214-0.402-20.194-4.782-25.381-15.045
		c-7.589-15.018-0.093-33.953,17.763-38.513c9.38-2.396,18.273-0.972,26.003,5.147c7.202,5.702,10.365,13.356,9.977,22.494
		c-0.565,13.298-10.829,23.862-24.016,25.532C149.621,233.064,148.168,233.14,146.714,233.266z M160.78,206.124
		c-0.304-1.639-0.431-3.333-0.937-4.906c-3.67-11.405-17.013-12.407-23.081-5.669c-3.024,3.359-3.982,7.371-3.676,11.808
		c0.665,9.636,10.186,15.716,19.145,12.182C157.36,217.513,160.566,212.372,160.78,206.124z"/>
	<path fill-rule="evenodd" clip-rule="evenodd" fill="#7414DC" d="M228.94,231.924c-4.869,0-9.664,0-14.608,0
		c0-2.339,0-4.626,0-6.913c-0.086-0.035-0.172-0.071-0.258-0.107c-0.282,0.312-0.576,0.614-0.846,0.937
		c-2.96,3.528-6.479,6.199-11.156,6.902c-9.175,1.378-18.405-2.437-20.455-13.84c-0.283-1.568-0.45-3.18-0.455-4.772
		c-0.038-11.049-0.021-22.099-0.018-33.148c0-0.401,0.034-0.802,0.055-1.262c4.886,0,9.684,0,14.644,0c0,0.462,0,0.895,0,1.327
		c0,9.295-0.019,18.59,0.02,27.886c0.006,1.33,0.162,2.685,0.454,3.982c1.022,4.558,4.658,7.14,9.308,6.71
		c5.541-0.512,8.677-4.148,8.695-10.205c0.03-9.369,0.009-18.74,0.009-28.109c0-0.484,0-0.967,0-1.554c4.88,0,9.702,0,14.612,0
		C228.94,197.098,228.94,214.437,228.94,231.924z"/>
	<path fill-rule="evenodd" clip-rule="evenodd" fill="#7414DC" d="M271.688,225.146c2.103-3.234,4.168-6.414,6.224-9.577
		c1.918,1.103,3.72,2.217,5.593,3.195c3.17,1.655,6.544,2.773,10.125,2.897c1.669,0.057,3.463-0.173,5.013-0.765
		c2.778-1.058,3.1-4.439,0.597-6.03c-1.516-0.962-3.286-1.551-4.99-2.179c-3.94-1.45-8.022-2.575-11.84-4.291
		c-4.254-1.912-7.059-5.241-7.865-10.046c-1.4-8.333,2.934-15.572,11.068-18.232c5.999-1.962,12.022-1.547,17.902,0.4
		c2.98,0.987,5.773,2.55,8.644,3.866c0.259,0.119,0.472,0.339,0.775,0.564c-1.854,3.358-3.688,6.679-5.573,10.093
		c-0.771-0.408-1.476-0.795-2.191-1.157c-3.64-1.849-7.367-3.476-11.519-3.642c-1.233-0.049-2.563,0.12-3.711,0.555
		c-2.813,1.066-3.251,4.252-0.706,5.825c2.034,1.255,4.366,2.044,6.603,2.948c3.275,1.325,6.666,2.394,9.855,3.893
		c3.676,1.727,6.722,4.314,7.847,8.42c1.887,6.882-0.193,15.956-9.429,19.446c-4.465,1.688-9.086,1.999-13.76,1.479
		c-6.382-0.71-12.198-2.985-17.427-6.731C272.531,225.798,272.154,225.499,271.688,225.146z"/>
	<path fill-rule="evenodd" clip-rule="evenodd" fill="#7414DC" d="M115.072,187.446c-3.033,3.261-5.975,6.424-8.955,9.627
		c-0.924-0.825-1.753-1.621-2.639-2.349c-4.839-3.973-11.403-4.515-16.107-1.265c-3.712,2.564-5.55,6.271-5.981,10.666
		c-0.274,2.804,0.009,5.582,1.117,8.232c3.218,7.694,12.112,10.534,19.59,6.167c1.631-0.954,3.085-2.211,4.912-3.54
		c2.732,2.741,5.586,5.604,8.497,8.525c-3.642,4.089-7.608,7.194-12.682,8.503c-9.722,2.51-18.84,1.382-26.74-5.257
		c-5.634-4.734-8.621-10.93-9.208-18.271c-0.663-8.285,1.682-15.562,7.441-21.609c4.323-4.54,9.686-7.14,15.899-7.897
		c5.367-0.654,10.647-0.275,15.711,1.793C109.476,182.224,112.462,184.458,115.072,187.446z"/>
	<path fill-rule="evenodd" clip-rule="evenodd" fill="#7414DC" d="M173.792,90.085c-2.447,0-4.859,0-7.548,0
		c0.321-1.824,0.569-3.571,0.941-5.292c1.385-6.378,4.072-12.279,6.642-18.232c1.769-4.096,3.536-8.223,4.869-12.472
		c2.937-9.362,0.241-17.471-6.432-24.277c-2.909-2.968-6.359-5.406-9.56-8.09c-0.711-0.598-1.405-1.218-2.141-1.857
		c-0.179,0.1-0.352,0.167-0.488,0.278c-2.865,2.333-5.735,4.658-8.584,7.009c-5.041,4.159-8.619,9.259-9.96,15.751
		c-0.942,4.561-0.275,9.026,1.36,13.285c2.001,5.211,4.289,10.313,6.479,15.452c2.359,5.532,4.316,11.182,5.175,17.164
		c0.057,0.394,0.049,0.798,0.076,1.267c-2.514,0-4.925,0-7.45,0c-0.34-1.603-0.634-3.241-1.039-4.851
		c-1.469-5.849-4.004-11.29-6.465-16.758c-2.125-4.724-4.216-9.465-5.305-14.562c-2.283-10.682,0.564-20.041,7.712-28.073
		c2.41-2.708,5.442-4.855,8.144-7.311c3.17-2.883,6.292-5.82,9.431-8.738c0.269-0.25,0.509-0.532,0.999-1.044
		c0.237,0.366,0.405,0.706,0.646,0.982c3.418,3.941,7.382,7.278,11.524,10.417c6.456,4.891,11.175,11.019,13.456,18.883
		c1.957,6.744,1.295,13.392-1.094,19.851c-1.808,4.885-3.981,9.636-6.04,14.427c-2.207,5.143-4.261,10.329-5.107,15.906
		C173.988,89.488,173.88,89.766,173.792,90.085z"/>
	<path fill-rule="evenodd" clip-rule="evenodd" fill="#7414DC" d="M237.865,166.271c4.928,0,9.698,0,14.614,0
		c0.024,0.431,0.068,0.86,0.069,1.289c0.005,3.584,0.044,7.169-0.021,10.752c-0.02,1.104,0.348,1.384,1.405,1.364
		c3.321-0.062,6.646-0.002,9.968-0.036c0.765-0.008,1.06,0.214,1.054,1.005c-0.028,3.547-0.027,7.094-0.001,10.641
		c0.005,0.763-0.231,1.035-1.026,1.025c-3.435-0.038-6.87,0.01-10.305-0.033c-0.843-0.01-1.087,0.266-1.084,1.088
		c0.025,7.019,0.008,14.038,0.025,21.057c0.002,0.742,0.088,1.496,0.238,2.223c0.423,2.055,1.979,3.23,4.329,3.302
		c2.192,0.065,4.296-0.367,6.319-1.203c0.34-0.141,0.682-0.279,1.174-0.48c0.037,0.436,0.091,0.78,0.092,1.124
		c0.006,3.136-0.023,6.272,0.021,9.408c0.013,0.857-0.245,1.356-1.035,1.744c-5.51,2.704-11.258,3.068-17.095,1.521
		c-4.902-1.3-7.406-4.905-8.271-9.717c-0.314-1.751-0.446-3.557-0.45-5.338c-0.033-16.428-0.02-32.855-0.02-49.283
		C237.865,167.279,237.865,166.836,237.865,166.271z"/>
	<path fill-rule="evenodd" clip-rule="evenodd" fill="#7414DC" d="M146.817,111.351c2.521,0,4.974,0,7.655,0
		c-0.379,1.597-0.684,3.108-1.099,4.588c-1.082,3.862-2.686,7.503-4.821,10.898c-0.396,0.629-0.405,1.067,0.021,1.694
		c2.909,4.28,6.669,7.619,11.158,10.146c0.371,0.209,1.041,0.259,1.396,0.063c4.542-2.517,8.333-5.879,11.27-10.185
		c0.406-0.596,0.447-1.047,0.043-1.695c-2.803-4.503-4.706-9.37-5.716-14.581c-0.049-0.25-0.068-0.505-0.129-0.985
		c0.947,0,1.817,0,2.689,0c1.381,0,2.763,0.021,4.143-0.007c0.583-0.012,0.835,0.177,0.977,0.777
		c1.241,5.224,3.545,9.949,6.801,14.21c0.39,0.512,0.415,0.921,0.147,1.51c-4.163,9.198-11.225,15.359-20.298,19.411
		c-0.322,0.144-0.824,0.132-1.15-0.013c-9.037-4.033-16.082-10.168-20.208-19.331c-0.175-0.39-0.218-1.046-0.006-1.372
		C144.221,119.476,144.229,119.482,146.817,111.351z"/>
	<path fill-rule="evenodd" clip-rule="evenodd" fill="#7414DC" d="M139.11,90.13c-2.387,0-4.694,0.028-6.999-0.042
		c-0.233-0.007-0.588-0.577-0.65-0.928c-1.241-7.039-3.755-13.564-7.905-19.403c-2.677-3.768-5.922-6.92-10.327-8.64
		c-9.112-3.558-19.166,2.095-20.88,11.745c-0.195,1.097-0.321,2.219-0.336,3.33c-0.015,1.068,0.156,2.14,0.256,3.342
		c-2.401,0.52-4.81,1.041-7.286,1.576c-1.092-5.252-0.606-10.185,1.58-14.882c3.567-7.664,9.541-12.358,17.937-13.52
		c7.005-0.969,13.291,1.085,18.731,5.603c6.084,5.051,9.953,11.621,12.771,18.885c1.5,3.866,2.506,7.868,3.104,11.972
		C139.146,89.449,139.11,89.74,139.11,90.13z"/>
	<path fill-rule="evenodd" clip-rule="evenodd" fill="#7414DC" d="M181.668,90.135c0.457-2.292,0.784-4.42,1.311-6.498
		c2.142-8.441,5.779-16.126,11.78-22.546c4.252-4.55,9.363-7.72,15.632-8.393c9.517-1.021,17.106,2.472,22.398,10.52
		c3.451,5.25,4.37,11.077,3.357,17.238c-0.028,0.175-0.122,0.339-0.234,0.64c-2.403-0.521-4.783-1.037-7.013-1.52
		c0-1.678,0.092-3.234-0.014-4.777c-0.559-8.136-7.382-15.213-16.174-14.705c-5.988,0.346-10.345,3.514-13.94,7.929
		c-4.984,6.119-7.817,13.232-9.184,20.954c-0.149,0.842-0.389,1.213-1.321,1.181C186.185,90.085,184.099,90.135,181.668,90.135z"/>
	<path fill-rule="evenodd" clip-rule="evenodd" fill="#7414DC" d="M204.378,104.291c-0.6,0-1.038,0-1.477,0
		c-28.254,0-56.507,0-84.761,0c-1.586,0-1.587-0.001-1.59-1.577c-0.002-1.344-0.003-2.687,0-4.031
		c0.003-1.569,0.005-1.569,1.628-1.573c0.112,0,0.224,0,0.336,0c27.955,0,55.91,0,83.865,0c0.41,0,0.85-0.083,1.222,0.037
		c0.301,0.097,0.735,0.437,0.742,0.68C204.402,99.911,204.378,101.998,204.378,104.291z"/>
</g>
</svg>
