<svg id="Vector logo" data-name="WORT-/BILDMARKE sRGB" xmlns="http://www.w3.org/2000/svg" viewBox="0 0 283.46 65.86"><defs><style>.c-logo-svg__text { transition: opacity .25s .15s linear; } .c-logo-svg__arrow { fill:#b70032; } @media screen and (max-width: 200px) { .c-logo-svg--is-hidden .c-logo-svg__text { opacity: 0; transition: opacity .2s linear; } }</style></defs><g class="c-logo-svg" id="js-logo-svg"><path class="c-logo-svg__arrow" d="M226.43 49.39v16.47l57.03-32.93L226.43 0v16.46l28.52 16.47-28.52 16.46z"/><g class="c-logo-svg__text"><path d="M24.7 18.67h8.23L16.46 47.19 0 18.67h8.23l8.23 14.26 8.24-14.26zM151.9 18a15 15 0 1 0 15 15 15 15 0 0 0-15-15zm0 22.85a7.88 7.88 0 1 1 7.88-7.88 7.88 7.88 0 0 1-7.88 7.84zM89.26 40.81a7.88 7.88 0 1 1 5.57-13.45l5-5a15 15 0 1 0 0 21.17l-5-5a7.85 7.85 0 0 1-5.57 2.28zM105.59 25.09h9.62v22.1h7.13v-22.1h9.63v-6.42h-26.38v6.42zM42.21 47.19h22.1v-6.42H49.34v-4.99h11.69v-6.27H49.34v-4.42h14.97v-6.42h-22.1v28.52zM204.33 28.19a9.52 9.52 0 0 0-9.5-9.52h-17.59v28.52h7.13v-9.48h6.24l5.49 9.48h8.23L198.43 37a9.47 9.47 0 0 0 5.9-8.81zm-10.16 3.17h-9.8V25h9.8a3.18 3.18 0 0 1 0 6.35z"/></g></g></svg>